HIERARCHY
ROOT Hips
{
	OFFSET 0.000000 0.000000 0.000000
	CHANNELS 6 Xposition Yposition Zposition Zrotation Yrotation Xrotation 
	JOINT LHipJoint
	{
		OFFSET 0.000000 0.000000 0.000000
		CHANNELS 3 Zrotation Yrotation Xrotation
		JOINT LeftUpLeg
		{
			OFFSET 1.363060 -1.794630 0.839290
			CHANNELS 3 Zrotation Yrotation Xrotation
			JOINT LeftLeg
			{
				OFFSET 2.448110 -6.726130 0.000000
				CHANNELS 3 Zrotation Yrotation Xrotation
				JOINT LeftFoot
				{
					OFFSET 2.562200 -7.039590 0.000000
					CHANNELS 3 Zrotation Yrotation Xrotation
					JOINT LeftToeBase
					{
						OFFSET 0.157640 -0.433110 2.322550
						CHANNELS 3 Zrotation Yrotation Xrotation
						End Site
						{
							OFFSET 0.000000 0.000000 0.000000
						}
					}
				}
			}
		}
	}
	JOINT RHipJoint
	{
		OFFSET 0.000000 0.000000 0.000000
		CHANNELS 3 Zrotation Yrotation Xrotation
		JOINT RightUpLeg
		{
			OFFSET -1.305520 -1.794630 0.839290
			CHANNELS 3 Zrotation Yrotation Xrotation
			JOINT RightLeg
			{
				OFFSET -2.542530 -6.985550 0.000000
				CHANNELS 3 Zrotation Yrotation Xrotation
				JOINT RightFoot
				{
					OFFSET -2.568260 -7.056230 0.000000
					CHANNELS 3 Zrotation Yrotation Xrotation
					JOINT RightToeBase
					{
						OFFSET -0.164730 -0.452590 2.363150
						CHANNELS 3 Zrotation Yrotation Xrotation
						End Site
						{
							OFFSET 0.000000 0.000000 0.000000
						}
					}
				}
			}
		}
	}
	JOINT LowerBack
	{
		OFFSET 0.000000 0.000000 0.000000
		CHANNELS 3 Zrotation Yrotation Xrotation
		JOINT Spine
		{
			OFFSET 0.028270 2.035590 -0.193380
			CHANNELS 3 Zrotation Yrotation Xrotation
			JOINT Spine1
			{
				OFFSET 0.056720 2.048850 -0.042750
				CHANNELS 3 Zrotation Yrotation Xrotation
				JOINT Neck
				{
					OFFSET 0.000000 0.000000 0.000000
					CHANNELS 3 Zrotation Yrotation Xrotation
					JOINT Neck1
					{
						OFFSET -0.054170 1.746240 0.172020
						CHANNELS 3 Zrotation Yrotation Xrotation
						JOINT Head
						{
							OFFSET 0.104070 1.761360 -0.123970
							CHANNELS 3 Zrotation Yrotation Xrotation
							End Site
							{
								OFFSET 0.000000 0.000000 0.000000
							}
						}
					}
				}
				JOINT LeftShoulder
				{
					OFFSET 0.000000 0.000000 0.000000
					CHANNELS 3 Zrotation Yrotation Xrotation
					JOINT LeftArm
					{
						OFFSET 3.362410 1.200890 -0.311210
						CHANNELS 3 Zrotation Yrotation Xrotation
						JOINT LeftForeArm
						{
							OFFSET 4.983000 -0.000000 -0.000000
							CHANNELS 3 Zrotation Yrotation Xrotation
							JOINT LeftHand
							{
								OFFSET 3.483560 -0.000000 -0.000000
								CHANNELS 3 Zrotation Yrotation Xrotation
								JOINT LeftFingerBase
								{
									OFFSET 0.000000 0.000000 0.000000
									CHANNELS 3 Zrotation Yrotation Xrotation
									JOINT LeftHandIndex1
									{
										OFFSET 0.715260 -0.000000 -0.000000
										CHANNELS 3 Zrotation Yrotation Xrotation
										End Site
										{
											OFFSET 0.000000 0.000000 0.000000
										}
									}
								}
								JOINT LThumb
								{
									OFFSET 0.000000 0.000000 0.000000
									CHANNELS 3 Zrotation Yrotation Xrotation
									End Site
									{
										OFFSET 0.000000 0.000000 0.000000
									}
								}
							}
						}
					}
				}
				JOINT RightShoulder
				{
					OFFSET 0.000000 0.000000 0.000000
					CHANNELS 3 Zrotation Yrotation Xrotation
					JOINT RightArm
					{
						OFFSET -3.136600 1.374050 -0.404650
						CHANNELS 3 Zrotation Yrotation Xrotation
						JOINT RightForeArm
						{
							OFFSET -5.241900 -0.000000 -0.000000
							CHANNELS 3 Zrotation Yrotation Xrotation
							JOINT RightHand
							{
								OFFSET -3.444170 -0.000000 -0.000000
								CHANNELS 3 Zrotation Yrotation Xrotation
								JOINT RightFingerBase
								{
									OFFSET 0.000000 0.000000 0.000000
									CHANNELS 3 Zrotation Yrotation Xrotation
									JOINT RightHandIndex1
									{
										OFFSET -0.622530 -0.000000 -0.000000
										CHANNELS 3 Zrotation Yrotation Xrotation
										End Site
										{
											OFFSET 0.000000 0.000000 0.000000
										}
									}
								}
								JOINT RThumb
								{
									OFFSET 0.000000 0.000000 0.000000
									CHANNELS 3 Zrotation Yrotation Xrotation
									End Site
									{
										OFFSET 0.000000 0.000000 0.000000
									}
								}
							}
						}
					}
				}
			}
		}
	}
}
MOTION
Frames: 4
Frame Time: 0.008333
11.828330 17.683229 -18.291142 0.833848 -4.723306 1.636409 -0.243181 0.000761 0.350107 -10.641758 -1.630851 -23.196461 2.852806 14.703982 41.895263 5.626993 -7.044053 4.796669 0.904700 -6.061500 -16.963000 -2.447733 -0.515563 -0.477714 14.802823 4.208380 -21.586014 -3.654419 -15.312939 45.759084 3.353428 -11.772482 -7.027437 -0.823900 5.791300 -16.180000 1.630099 0.271578 12.136372 1.222743 0.820274 -1.355981 -3.451436 0.185044 -12.826176 1.501988 0.042185 -13.277354 1.404497 0.851132 17.684933 -2.991600 1.083000 7.273600 1.043670 -11.906138 1.542462 -32.131512 -33.030506 10.657750 52.749649 -46.130852 -28.204549 -0.573573 1.668999 21.092402 69.630267 -40.981799 -62.509700 -7.125000 0.000000 0.000000 15.581300 -38.323600 -22.259300 -0.998026 14.127590 2.582774 33.824960 34.966324 13.776062 -56.210477 46.693852 -31.202983 1.292744 0.168785 25.754268 -49.104538 -42.328967 38.911500 7.125000 0.000000 0.000000 -47.598300 -82.545800 41.833300 
11.829783 17.683834 -18.292595 0.792396 -4.693914 1.616688 -0.243687 0.003880 0.351074 -10.604267 -1.656891 -23.174348 2.841751 14.693629 41.864274 5.617848 -7.028154 4.880001 0.920900 -6.114000 -17.115500 -2.442645 -0.520084 -0.472705 14.842484 4.174334 -21.566116 -3.645162 -15.303984 45.734011 3.382305 -11.836383 -7.035043 -0.824700 5.794000 -16.187900 1.679634 0.258389 12.213110 1.221708 0.812323 -1.389673 -3.485204 0.176742 -12.903862 1.575550 0.073390 -13.121226 1.411351 0.861139 17.542540 -3.007200 1.088700 7.185900 1.045013 -11.895974 1.566589 -32.180059 -32.886042 10.754933 52.840812 -46.169011 -28.282226 -0.567508 1.669589 21.015081 69.163436 -41.115837 -61.949200 -7.125000 0.000000 0.000000 15.275100 -38.039100 -21.798500 -0.993198 14.105707 2.585212 33.932319 34.932039 13.851040 -56.214831 46.694756 -31.205034 1.292398 0.168671 25.751727 -49.082656 -42.330296 38.890300 7.125000 0.000000 0.000000 -47.485000 -82.544700 41.729100 
11.833052 17.682623 -18.295742 0.844505 -4.655815 1.622671 -0.254098 -0.001978 0.348210 -10.662624 -1.700215 -23.172248 2.830505 14.691941 41.847289 5.607818 -7.011832 4.848460 0.929600 -6.142000 -17.196800 -2.441107 -0.522446 -0.470430 14.772823 4.100874 -21.583059 -3.642447 -15.292831 45.698074 3.408514 -11.886124 -6.977953 -0.838800 5.842200 -16.327400 1.646199 0.242265 12.253981 1.202893 0.784035 -1.422849 -3.482615 0.166621 -12.962171 1.601295 0.093698 -13.012625 1.424406 0.871417 17.473157 -3.009100 1.094700 7.137200 1.046143 -11.888568 1.583661 -32.198154 -32.783907 10.815564 52.856880 -46.181752 -28.297179 -0.570778 1.670797 21.012170 69.416132 -41.168721 -62.306600 -7.125000 0.000000 0.000000 15.368300 -38.287200 -21.943700 -0.990335 14.094544 2.582623 34.004723 34.939469 13.920551 -56.202152 46.687865 -31.191918 1.293557 0.169424 25.731242 -49.051806 -42.347832 38.870000 7.125000 0.000000 0.000000 -47.377900 -82.558200 41.642300 
11.835473 17.685045 -18.294653 0.903107 -4.627088 1.599158 -0.268176 0.002653 0.357537 -10.722677 -1.743679 -23.123037 2.815033 14.683213 41.829065 5.599765 -7.021872 4.910677 0.925800 -6.129900 -17.161700 -2.437945 -0.530443 -0.463783 14.692848 4.052030 -21.551986 -3.642239 -15.278891 45.675209 3.339019 -11.726699 -6.917470 -0.800400 5.710100 -15.945600 1.601031 0.239501 12.268383 1.186252 0.772570 -1.431844 -3.467080 0.164195 -12.983756 1.549071 0.056990 -13.011536 1.461452 0.825253 17.530661 -2.985200 1.075000 7.156300 1.044045 -11.887290 1.576147 -32.224847 -32.817279 10.856961 52.743139 -46.136029 -28.201930 -0.572951 1.672363 21.139262 69.795120 -41.085279 -62.775300 -7.125000 0.000000 0.000000 15.600700 -38.540900 -22.294200 -0.988902 14.094359 2.590059 34.028788 34.899946 13.952553 -56.224124 46.696528 -31.211866 1.292911 0.170632 25.753099 -48.976773 -42.368422 38.807300 7.125000 0.000000 0.000000 -47.043400 -82.572700 41.349400 
